<mxfile host="app.diagrams.net" agent="Mozilla/5.0 (Windows NT 10.0; Win64; x64) AppleWebKit/537.36 (KHTML, like Gecko) Chrome/138.0.0.0 Safari/537.36 Edg/138.0.0.0" version="28.0.4">
  <diagram name="Joey" id="74e2e168-ea6b-b213-b513-2b3c1d86103e">
    <mxGraphModel dx="1938" dy="1833" grid="1" gridSize="10" guides="1" tooltips="1" connect="1" arrows="1" fold="1" page="1" pageScale="1" pageWidth="1100" pageHeight="850" background="none" math="0" shadow="0">
      <root>
        <mxCell id="0" />
        <mxCell id="1" parent="0" />
        <mxCell id="77e6c97f196da883-1" value="Pool" style="swimlane;html=1;childLayout=stackLayout;startSize=20;rounded=0;shadow=0;labelBackgroundColor=none;strokeWidth=1;fontFamily=Verdana;fontSize=8;align=center;" parent="1" vertex="1">
          <mxGeometry x="160" y="-30" width="1210" height="1490" as="geometry" />
        </mxCell>
        <mxCell id="77e6c97f196da883-2" value="Customer" style="swimlane;html=1;startSize=20;" parent="77e6c97f196da883-1" vertex="1">
          <mxGeometry y="20" width="120" height="1470" as="geometry" />
        </mxCell>
        <mxCell id="77e6c97f196da883-3" value="ShoeTown VF下订单" style="swimlane;html=1;startSize=20;" parent="77e6c97f196da883-1" vertex="1">
          <mxGeometry x="120" y="20" width="540" height="1470" as="geometry" />
        </mxCell>
        <mxCell id="UvdvFAhY9TrJySVR9n1p-1" value="接收邮件订单" style="rounded=1;whiteSpace=wrap;html=1;" vertex="1" parent="77e6c97f196da883-3">
          <mxGeometry x="65" y="60" width="120" height="60" as="geometry" />
        </mxCell>
        <mxCell id="UvdvFAhY9TrJySVR9n1p-5" value="" style="edgeStyle=orthogonalEdgeStyle;rounded=0;orthogonalLoop=1;jettySize=auto;html=1;" edge="1" parent="77e6c97f196da883-3" source="UvdvFAhY9TrJySVR9n1p-1" target="UvdvFAhY9TrJySVR9n1p-4">
          <mxGeometry relative="1" as="geometry">
            <mxPoint x="125" y="230" as="sourcePoint" />
          </mxGeometry>
        </mxCell>
        <mxCell id="UvdvFAhY9TrJySVR9n1p-8" value="" style="edgeStyle=orthogonalEdgeStyle;rounded=0;orthogonalLoop=1;jettySize=auto;html=1;" edge="1" parent="77e6c97f196da883-3" source="UvdvFAhY9TrJySVR9n1p-4" target="UvdvFAhY9TrJySVR9n1p-7">
          <mxGeometry relative="1" as="geometry" />
        </mxCell>
        <mxCell id="UvdvFAhY9TrJySVR9n1p-10" value="" style="edgeStyle=orthogonalEdgeStyle;rounded=0;orthogonalLoop=1;jettySize=auto;html=1;" edge="1" parent="77e6c97f196da883-3" source="UvdvFAhY9TrJySVR9n1p-4" target="UvdvFAhY9TrJySVR9n1p-9">
          <mxGeometry relative="1" as="geometry" />
        </mxCell>
        <mxCell id="UvdvFAhY9TrJySVR9n1p-4" value="判断订单类型" style="rhombus;whiteSpace=wrap;html=1;rounded=1;" vertex="1" parent="77e6c97f196da883-3">
          <mxGeometry x="65" y="180" width="120" height="80" as="geometry" />
        </mxCell>
        <mxCell id="UvdvFAhY9TrJySVR9n1p-7" value="样板单" style="whiteSpace=wrap;html=1;rounded=1;" vertex="1" parent="77e6c97f196da883-3">
          <mxGeometry x="65" y="300" width="120" height="60" as="geometry" />
        </mxCell>
        <mxCell id="UvdvFAhY9TrJySVR9n1p-9" value="量产单" style="whiteSpace=wrap;html=1;rounded=1;" vertex="1" parent="77e6c97f196da883-3">
          <mxGeometry x="235" y="300" width="120" height="60" as="geometry" />
        </mxCell>
        <mxCell id="UvdvFAhY9TrJySVR9n1p-20" value="" style="edgeStyle=orthogonalEdgeStyle;rounded=0;orthogonalLoop=1;jettySize=auto;html=1;" edge="1" parent="77e6c97f196da883-3" source="UvdvFAhY9TrJySVR9n1p-15" target="UvdvFAhY9TrJySVR9n1p-19">
          <mxGeometry relative="1" as="geometry" />
        </mxCell>
        <mxCell id="UvdvFAhY9TrJySVR9n1p-15" value="转发邮件给Fanny" style="whiteSpace=wrap;html=1;rounded=1;" vertex="1" parent="77e6c97f196da883-3">
          <mxGeometry x="150" y="500" width="120" height="60" as="geometry" />
        </mxCell>
        <mxCell id="UvdvFAhY9TrJySVR9n1p-24" value="" style="edgeStyle=orthogonalEdgeStyle;rounded=0;orthogonalLoop=1;jettySize=auto;html=1;" edge="1" parent="77e6c97f196da883-3" source="UvdvFAhY9TrJySVR9n1p-19" target="UvdvFAhY9TrJySVR9n1p-23">
          <mxGeometry relative="1" as="geometry" />
        </mxCell>
        <mxCell id="UvdvFAhY9TrJySVR9n1p-19" value="手动打印邮件及附件，手写对应色卡，整理实物文档" style="whiteSpace=wrap;html=1;rounded=1;" vertex="1" parent="77e6c97f196da883-3">
          <mxGeometry x="150" y="590" width="120" height="60" as="geometry" />
        </mxCell>
        <mxCell id="UvdvFAhY9TrJySVR9n1p-58" value="" style="edgeStyle=orthogonalEdgeStyle;rounded=0;orthogonalLoop=1;jettySize=auto;html=1;entryX=0.5;entryY=0;entryDx=0;entryDy=0;" edge="1" parent="77e6c97f196da883-3" source="UvdvFAhY9TrJySVR9n1p-23" target="UvdvFAhY9TrJySVR9n1p-60">
          <mxGeometry relative="1" as="geometry" />
        </mxCell>
        <mxCell id="UvdvFAhY9TrJySVR9n1p-59" value="" style="edgeStyle=orthogonalEdgeStyle;rounded=0;orthogonalLoop=1;jettySize=auto;html=1;exitX=0.25;exitY=1;exitDx=0;exitDy=0;" edge="1" parent="77e6c97f196da883-3" source="UvdvFAhY9TrJySVR9n1p-23" target="UvdvFAhY9TrJySVR9n1p-57">
          <mxGeometry relative="1" as="geometry" />
        </mxCell>
        <mxCell id="UvdvFAhY9TrJySVR9n1p-23" value="通知Fanny开单" style="whiteSpace=wrap;html=1;rounded=1;" vertex="1" parent="77e6c97f196da883-3">
          <mxGeometry x="150" y="670" width="120" height="60" as="geometry" />
        </mxCell>
        <mxCell id="UvdvFAhY9TrJySVR9n1p-56" value="" style="edgeStyle=orthogonalEdgeStyle;rounded=0;orthogonalLoop=1;jettySize=auto;html=1;entryX=0.5;entryY=0;entryDx=0;entryDy=0;" edge="1" parent="77e6c97f196da883-3" source="UvdvFAhY9TrJySVR9n1p-25" target="UvdvFAhY9TrJySVR9n1p-15">
          <mxGeometry relative="1" as="geometry" />
        </mxCell>
        <mxCell id="UvdvFAhY9TrJySVR9n1p-25" value="订单内容是否确定？" style="rhombus;whiteSpace=wrap;html=1;rounded=1;" vertex="1" parent="77e6c97f196da883-3">
          <mxGeometry x="150" y="400" width="120" height="80" as="geometry" />
        </mxCell>
        <mxCell id="UvdvFAhY9TrJySVR9n1p-34" value="" style="edgeStyle=orthogonalEdgeStyle;rounded=0;orthogonalLoop=1;jettySize=auto;html=1;" edge="1" parent="77e6c97f196da883-3" source="UvdvFAhY9TrJySVR9n1p-30" target="UvdvFAhY9TrJySVR9n1p-33">
          <mxGeometry relative="1" as="geometry" />
        </mxCell>
        <mxCell id="UvdvFAhY9TrJySVR9n1p-30" value="咨询业务/ 样板主管是否接单" style="whiteSpace=wrap;html=1;rounded=1;" vertex="1" parent="77e6c97f196da883-3">
          <mxGeometry x="310" y="470" width="120" height="60" as="geometry" />
        </mxCell>
        <mxCell id="UvdvFAhY9TrJySVR9n1p-38" value="" style="edgeStyle=orthogonalEdgeStyle;rounded=0;orthogonalLoop=1;jettySize=auto;html=1;" edge="1" parent="77e6c97f196da883-3" source="UvdvFAhY9TrJySVR9n1p-33" target="UvdvFAhY9TrJySVR9n1p-37">
          <mxGeometry relative="1" as="geometry" />
        </mxCell>
        <mxCell id="UvdvFAhY9TrJySVR9n1p-33" value="客人沟通确认" style="whiteSpace=wrap;html=1;rounded=1;" vertex="1" parent="77e6c97f196da883-3">
          <mxGeometry x="310" y="550" width="120" height="60" as="geometry" />
        </mxCell>
        <mxCell id="UvdvFAhY9TrJySVR9n1p-61" value="" style="edgeStyle=orthogonalEdgeStyle;rounded=0;orthogonalLoop=1;jettySize=auto;html=1;" edge="1" parent="77e6c97f196da883-3" source="UvdvFAhY9TrJySVR9n1p-37" target="UvdvFAhY9TrJySVR9n1p-23">
          <mxGeometry relative="1" as="geometry" />
        </mxCell>
        <mxCell id="UvdvFAhY9TrJySVR9n1p-37" value="记录" style="whiteSpace=wrap;html=1;rounded=1;" vertex="1" parent="77e6c97f196da883-3">
          <mxGeometry x="310" y="670" width="120" height="60" as="geometry" />
        </mxCell>
        <mxCell id="UvdvFAhY9TrJySVR9n1p-52" value="" style="endArrow=classic;html=1;rounded=0;entryX=0;entryY=0.5;entryDx=0;entryDy=0;" edge="1" parent="77e6c97f196da883-3" target="UvdvFAhY9TrJySVR9n1p-25">
          <mxGeometry width="50" height="50" relative="1" as="geometry">
            <mxPoint x="120" y="360" as="sourcePoint" />
            <mxPoint x="170" y="310" as="targetPoint" />
            <Array as="points">
              <mxPoint x="120" y="440" />
            </Array>
          </mxGeometry>
        </mxCell>
        <mxCell id="UvdvFAhY9TrJySVR9n1p-53" value="" style="endArrow=classic;html=1;rounded=0;entryX=0.5;entryY=0;entryDx=0;entryDy=0;" edge="1" parent="77e6c97f196da883-3" target="UvdvFAhY9TrJySVR9n1p-25">
          <mxGeometry width="50" height="50" relative="1" as="geometry">
            <mxPoint x="290" y="360" as="sourcePoint" />
            <mxPoint x="340" y="310" as="targetPoint" />
            <Array as="points">
              <mxPoint x="290" y="385" />
              <mxPoint x="210" y="385" />
            </Array>
          </mxGeometry>
        </mxCell>
        <mxCell id="UvdvFAhY9TrJySVR9n1p-54" value="" style="endArrow=classic;html=1;rounded=0;entryX=0.5;entryY=0;entryDx=0;entryDy=0;" edge="1" parent="77e6c97f196da883-3" target="UvdvFAhY9TrJySVR9n1p-30">
          <mxGeometry width="50" height="50" relative="1" as="geometry">
            <mxPoint x="270" y="440" as="sourcePoint" />
            <mxPoint x="320" y="390" as="targetPoint" />
            <Array as="points">
              <mxPoint x="370" y="440" />
            </Array>
          </mxGeometry>
        </mxCell>
        <mxCell id="UvdvFAhY9TrJySVR9n1p-55" value="不确定" style="edgeLabel;html=1;align=center;verticalAlign=middle;resizable=0;points=[];" vertex="1" connectable="0" parent="UvdvFAhY9TrJySVR9n1p-54">
          <mxGeometry x="-0.38" y="-3" relative="1" as="geometry">
            <mxPoint as="offset" />
          </mxGeometry>
        </mxCell>
        <mxCell id="UvdvFAhY9TrJySVR9n1p-63" value="" style="edgeStyle=orthogonalEdgeStyle;rounded=0;orthogonalLoop=1;jettySize=auto;html=1;" edge="1" parent="77e6c97f196da883-3" source="UvdvFAhY9TrJySVR9n1p-57" target="UvdvFAhY9TrJySVR9n1p-62">
          <mxGeometry relative="1" as="geometry" />
        </mxCell>
        <mxCell id="UvdvFAhY9TrJySVR9n1p-57" value="样板单" style="whiteSpace=wrap;html=1;rounded=1;" vertex="1" parent="77e6c97f196da883-3">
          <mxGeometry x="60" y="780" width="120" height="60" as="geometry" />
        </mxCell>
        <mxCell id="UvdvFAhY9TrJySVR9n1p-66" value="" style="edgeStyle=orthogonalEdgeStyle;rounded=0;orthogonalLoop=1;jettySize=auto;html=1;" edge="1" parent="77e6c97f196da883-3" source="UvdvFAhY9TrJySVR9n1p-60" target="UvdvFAhY9TrJySVR9n1p-62">
          <mxGeometry relative="1" as="geometry" />
        </mxCell>
        <mxCell id="UvdvFAhY9TrJySVR9n1p-68" value="" style="edgeStyle=orthogonalEdgeStyle;rounded=0;orthogonalLoop=1;jettySize=auto;html=1;" edge="1" parent="77e6c97f196da883-3" source="UvdvFAhY9TrJySVR9n1p-60" target="UvdvFAhY9TrJySVR9n1p-67">
          <mxGeometry relative="1" as="geometry" />
        </mxCell>
        <mxCell id="UvdvFAhY9TrJySVR9n1p-60" value="量产单" style="whiteSpace=wrap;html=1;rounded=1;" vertex="1" parent="77e6c97f196da883-3">
          <mxGeometry x="220" y="780" width="120" height="60" as="geometry" />
        </mxCell>
        <mxCell id="UvdvFAhY9TrJySVR9n1p-62" value="邮件通知客人" style="whiteSpace=wrap;html=1;rounded=1;" vertex="1" parent="77e6c97f196da883-3">
          <mxGeometry x="140" y="890" width="120" height="60" as="geometry" />
        </mxCell>
        <mxCell id="UvdvFAhY9TrJySVR9n1p-64" value="Teams与香港同事沟通进度" style="whiteSpace=wrap;html=1;rounded=1;" vertex="1" parent="77e6c97f196da883-3">
          <mxGeometry x="370" y="870" width="120" height="60" as="geometry" />
        </mxCell>
        <mxCell id="UvdvFAhY9TrJySVR9n1p-69" value="" style="edgeStyle=orthogonalEdgeStyle;rounded=0;orthogonalLoop=1;jettySize=auto;html=1;" edge="1" parent="77e6c97f196da883-3" source="UvdvFAhY9TrJySVR9n1p-67" target="UvdvFAhY9TrJySVR9n1p-64">
          <mxGeometry relative="1" as="geometry" />
        </mxCell>
        <mxCell id="UvdvFAhY9TrJySVR9n1p-67" value="纳入量产跟单列表" style="whiteSpace=wrap;html=1;rounded=1;" vertex="1" parent="77e6c97f196da883-3">
          <mxGeometry x="370" y="780" width="120" height="60" as="geometry" />
        </mxCell>
        <mxCell id="77e6c97f196da883-4" value="相关样板单审核" style="swimlane;html=1;startSize=20;" parent="77e6c97f196da883-1" vertex="1">
          <mxGeometry x="660" y="20" width="550" height="1470" as="geometry" />
        </mxCell>
        <mxCell id="UvdvFAhY9TrJySVR9n1p-42" value="" style="edgeStyle=orthogonalEdgeStyle;rounded=0;orthogonalLoop=1;jettySize=auto;html=1;" edge="1" parent="77e6c97f196da883-4" source="UvdvFAhY9TrJySVR9n1p-40" target="UvdvFAhY9TrJySVR9n1p-41">
          <mxGeometry relative="1" as="geometry" />
        </mxCell>
        <mxCell id="UvdvFAhY9TrJySVR9n1p-40" value="样板单审核提供色卡" style="rounded=1;whiteSpace=wrap;html=1;" vertex="1" parent="77e6c97f196da883-4">
          <mxGeometry x="90" y="30" width="120" height="60" as="geometry" />
        </mxCell>
        <mxCell id="UvdvFAhY9TrJySVR9n1p-44" value="" style="edgeStyle=orthogonalEdgeStyle;rounded=0;orthogonalLoop=1;jettySize=auto;html=1;" edge="1" parent="77e6c97f196da883-4" source="UvdvFAhY9TrJySVR9n1p-41" target="UvdvFAhY9TrJySVR9n1p-43">
          <mxGeometry relative="1" as="geometry" />
        </mxCell>
        <mxCell id="UvdvFAhY9TrJySVR9n1p-41" value="SYS06系统操作" style="whiteSpace=wrap;html=1;rounded=1;" vertex="1" parent="77e6c97f196da883-4">
          <mxGeometry x="90" y="110" width="120" height="60" as="geometry" />
        </mxCell>
        <mxCell id="UvdvFAhY9TrJySVR9n1p-49" value="" style="edgeStyle=orthogonalEdgeStyle;rounded=0;orthogonalLoop=1;jettySize=auto;html=1;" edge="1" parent="77e6c97f196da883-4" source="UvdvFAhY9TrJySVR9n1p-43" target="UvdvFAhY9TrJySVR9n1p-48">
          <mxGeometry relative="1" as="geometry">
            <Array as="points">
              <mxPoint x="250" y="230" />
            </Array>
          </mxGeometry>
        </mxCell>
        <mxCell id="UvdvFAhY9TrJySVR9n1p-50" value="批量审核" style="edgeLabel;html=1;align=center;verticalAlign=middle;resizable=0;points=[];" vertex="1" connectable="0" parent="UvdvFAhY9TrJySVR9n1p-49">
          <mxGeometry x="-0.2558" y="-2" relative="1" as="geometry">
            <mxPoint as="offset" />
          </mxGeometry>
        </mxCell>
        <mxCell id="UvdvFAhY9TrJySVR9n1p-43" value="选择审核方式" style="rhombus;whiteSpace=wrap;html=1;rounded=1;" vertex="1" parent="77e6c97f196da883-4">
          <mxGeometry x="100" y="190" width="100" height="80" as="geometry" />
        </mxCell>
        <mxCell id="UvdvFAhY9TrJySVR9n1p-45" value="" style="endArrow=classic;html=1;rounded=0;exitX=0;exitY=0.5;exitDx=0;exitDy=0;" edge="1" parent="77e6c97f196da883-4" source="UvdvFAhY9TrJySVR9n1p-43">
          <mxGeometry width="50" height="50" relative="1" as="geometry">
            <mxPoint x="120" y="250" as="sourcePoint" />
            <mxPoint x="70" y="280" as="targetPoint" />
            <Array as="points">
              <mxPoint x="70" y="230" />
            </Array>
          </mxGeometry>
        </mxCell>
        <mxCell id="UvdvFAhY9TrJySVR9n1p-47" value="单个订单/&lt;div&gt;订单数少&lt;/div&gt;" style="edgeLabel;html=1;align=center;verticalAlign=middle;resizable=0;points=[];" vertex="1" connectable="0" parent="UvdvFAhY9TrJySVR9n1p-45">
          <mxGeometry x="0.0322" relative="1" as="geometry">
            <mxPoint as="offset" />
          </mxGeometry>
        </mxCell>
        <mxCell id="UvdvFAhY9TrJySVR9n1p-71" value="" style="edgeStyle=orthogonalEdgeStyle;rounded=0;orthogonalLoop=1;jettySize=auto;html=1;" edge="1" parent="77e6c97f196da883-4" source="UvdvFAhY9TrJySVR9n1p-46" target="UvdvFAhY9TrJySVR9n1p-70">
          <mxGeometry relative="1" as="geometry" />
        </mxCell>
        <mxCell id="UvdvFAhY9TrJySVR9n1p-46" value="Sys06 approve" style="rounded=1;whiteSpace=wrap;html=1;" vertex="1" parent="77e6c97f196da883-4">
          <mxGeometry x="20" y="280" width="100" height="50" as="geometry" />
        </mxCell>
        <mxCell id="UvdvFAhY9TrJySVR9n1p-48" value="8034导出excel批量检查" style="whiteSpace=wrap;html=1;rounded=1;" vertex="1" parent="77e6c97f196da883-4">
          <mxGeometry x="200" y="280" width="100" height="50" as="geometry" />
        </mxCell>
        <mxCell id="UvdvFAhY9TrJySVR9n1p-74" value="" style="edgeStyle=orthogonalEdgeStyle;rounded=0;orthogonalLoop=1;jettySize=auto;html=1;" edge="1" parent="77e6c97f196da883-4" source="UvdvFAhY9TrJySVR9n1p-70" target="UvdvFAhY9TrJySVR9n1p-73">
          <mxGeometry relative="1" as="geometry" />
        </mxCell>
        <mxCell id="UvdvFAhY9TrJySVR9n1p-70" value="核对订单信息" style="rounded=1;whiteSpace=wrap;html=1;" vertex="1" parent="77e6c97f196da883-4">
          <mxGeometry x="110" y="370" width="100" height="50" as="geometry" />
        </mxCell>
        <mxCell id="UvdvFAhY9TrJySVR9n1p-72" value="" style="endArrow=classic;html=1;rounded=0;entryX=0.5;entryY=0;entryDx=0;entryDy=0;" edge="1" parent="77e6c97f196da883-4" target="UvdvFAhY9TrJySVR9n1p-70">
          <mxGeometry width="50" height="50" relative="1" as="geometry">
            <mxPoint x="250" y="330" as="sourcePoint" />
            <mxPoint x="300" y="280" as="targetPoint" />
            <Array as="points">
              <mxPoint x="250" y="350" />
              <mxPoint x="160" y="350" />
            </Array>
          </mxGeometry>
        </mxCell>
        <mxCell id="UvdvFAhY9TrJySVR9n1p-76" value="" style="edgeStyle=orthogonalEdgeStyle;rounded=0;orthogonalLoop=1;jettySize=auto;html=1;exitX=0;exitY=0.5;exitDx=0;exitDy=0;" edge="1" parent="77e6c97f196da883-4" source="UvdvFAhY9TrJySVR9n1p-73" target="UvdvFAhY9TrJySVR9n1p-75">
          <mxGeometry relative="1" as="geometry">
            <Array as="points">
              <mxPoint x="30" y="475" />
            </Array>
          </mxGeometry>
        </mxCell>
        <mxCell id="UvdvFAhY9TrJySVR9n1p-78" value="否" style="edgeLabel;html=1;align=center;verticalAlign=middle;resizable=0;points=[];" vertex="1" connectable="0" parent="UvdvFAhY9TrJySVR9n1p-76">
          <mxGeometry x="-0.904" y="2" relative="1" as="geometry">
            <mxPoint as="offset" />
          </mxGeometry>
        </mxCell>
        <mxCell id="UvdvFAhY9TrJySVR9n1p-83" value="" style="edgeStyle=orthogonalEdgeStyle;rounded=0;orthogonalLoop=1;jettySize=auto;html=1;entryX=0.5;entryY=0;entryDx=0;entryDy=0;" edge="1" parent="77e6c97f196da883-4" source="UvdvFAhY9TrJySVR9n1p-73" target="UvdvFAhY9TrJySVR9n1p-82">
          <mxGeometry relative="1" as="geometry" />
        </mxCell>
        <mxCell id="UvdvFAhY9TrJySVR9n1p-84" value="是" style="edgeLabel;html=1;align=center;verticalAlign=middle;resizable=0;points=[];" vertex="1" connectable="0" parent="UvdvFAhY9TrJySVR9n1p-83">
          <mxGeometry x="-0.2083" y="2" relative="1" as="geometry">
            <mxPoint as="offset" />
          </mxGeometry>
        </mxCell>
        <mxCell id="UvdvFAhY9TrJySVR9n1p-73" value="是否需要色卡参考" style="rhombus;whiteSpace=wrap;html=1;rounded=1;" vertex="1" parent="77e6c97f196da883-4">
          <mxGeometry x="100" y="435" width="120" height="80" as="geometry" />
        </mxCell>
        <mxCell id="UvdvFAhY9TrJySVR9n1p-114" value="" style="edgeStyle=orthogonalEdgeStyle;rounded=0;orthogonalLoop=1;jettySize=auto;html=1;" edge="1" parent="77e6c97f196da883-4" source="UvdvFAhY9TrJySVR9n1p-75" target="UvdvFAhY9TrJySVR9n1p-113">
          <mxGeometry relative="1" as="geometry" />
        </mxCell>
        <mxCell id="UvdvFAhY9TrJySVR9n1p-75" value="sys06 勾选approve" style="whiteSpace=wrap;html=1;rounded=1;" vertex="1" parent="77e6c97f196da883-4">
          <mxGeometry x="110" y="1130" width="120" height="60" as="geometry" />
        </mxCell>
        <mxCell id="UvdvFAhY9TrJySVR9n1p-87" value="" style="edgeStyle=orthogonalEdgeStyle;rounded=0;orthogonalLoop=1;jettySize=auto;html=1;entryX=0.5;entryY=0;entryDx=0;entryDy=0;" edge="1" parent="77e6c97f196da883-4" source="UvdvFAhY9TrJySVR9n1p-82" target="UvdvFAhY9TrJySVR9n1p-88">
          <mxGeometry relative="1" as="geometry">
            <mxPoint x="180" y="580" as="targetPoint" />
          </mxGeometry>
        </mxCell>
        <mxCell id="UvdvFAhY9TrJySVR9n1p-89" value="s" style="edgeLabel;html=1;align=center;verticalAlign=middle;resizable=0;points=[];" vertex="1" connectable="0" parent="UvdvFAhY9TrJySVR9n1p-87">
          <mxGeometry x="-0.3056" relative="1" as="geometry">
            <mxPoint as="offset" />
          </mxGeometry>
        </mxCell>
        <mxCell id="UvdvFAhY9TrJySVR9n1p-90" value="是" style="edgeLabel;html=1;align=center;verticalAlign=middle;resizable=0;points=[];" vertex="1" connectable="0" parent="UvdvFAhY9TrJySVR9n1p-87">
          <mxGeometry x="-0.2917" y="-2" relative="1" as="geometry">
            <mxPoint as="offset" />
          </mxGeometry>
        </mxCell>
        <mxCell id="UvdvFAhY9TrJySVR9n1p-92" value="" style="edgeStyle=orthogonalEdgeStyle;rounded=0;orthogonalLoop=1;jettySize=auto;html=1;" edge="1" parent="77e6c97f196da883-4" source="UvdvFAhY9TrJySVR9n1p-82" target="UvdvFAhY9TrJySVR9n1p-91">
          <mxGeometry relative="1" as="geometry" />
        </mxCell>
        <mxCell id="UvdvFAhY9TrJySVR9n1p-93" value="否" style="edgeLabel;html=1;align=center;verticalAlign=middle;resizable=0;points=[];" vertex="1" connectable="0" parent="UvdvFAhY9TrJySVR9n1p-92">
          <mxGeometry x="-0.3714" y="2" relative="1" as="geometry">
            <mxPoint as="offset" />
          </mxGeometry>
        </mxCell>
        <mxCell id="UvdvFAhY9TrJySVR9n1p-82" value="工厂提供客人色卡" style="rhombus;whiteSpace=wrap;html=1;rounded=1;" vertex="1" parent="77e6c97f196da883-4">
          <mxGeometry x="230" y="500" width="120" height="80" as="geometry" />
        </mxCell>
        <mxCell id="UvdvFAhY9TrJySVR9n1p-88" value="优先对客人色卡" style="rounded=1;whiteSpace=wrap;html=1;" vertex="1" parent="77e6c97f196da883-4">
          <mxGeometry x="50" y="590" width="120" height="60" as="geometry" />
        </mxCell>
        <mxCell id="UvdvFAhY9TrJySVR9n1p-95" value="" style="edgeStyle=orthogonalEdgeStyle;rounded=0;orthogonalLoop=1;jettySize=auto;html=1;" edge="1" parent="77e6c97f196da883-4" source="UvdvFAhY9TrJySVR9n1p-91" target="UvdvFAhY9TrJySVR9n1p-94">
          <mxGeometry relative="1" as="geometry" />
        </mxCell>
        <mxCell id="UvdvFAhY9TrJySVR9n1p-91" value="8034 production search查找&amp;nbsp;" style="whiteSpace=wrap;html=1;rounded=1;" vertex="1" parent="77e6c97f196da883-4">
          <mxGeometry x="230" y="620" width="120" height="60" as="geometry" />
        </mxCell>
        <mxCell id="UvdvFAhY9TrJySVR9n1p-97" value="" style="edgeStyle=orthogonalEdgeStyle;rounded=0;orthogonalLoop=1;jettySize=auto;html=1;" edge="1" parent="77e6c97f196da883-4" source="UvdvFAhY9TrJySVR9n1p-94" target="UvdvFAhY9TrJySVR9n1p-96">
          <mxGeometry relative="1" as="geometry" />
        </mxCell>
        <mxCell id="UvdvFAhY9TrJySVR9n1p-98" value="是" style="edgeLabel;html=1;align=center;verticalAlign=middle;resizable=0;points=[];" vertex="1" connectable="0" parent="UvdvFAhY9TrJySVR9n1p-97">
          <mxGeometry x="0.0556" y="3" relative="1" as="geometry">
            <mxPoint as="offset" />
          </mxGeometry>
        </mxCell>
        <mxCell id="UvdvFAhY9TrJySVR9n1p-100" value="" style="edgeStyle=orthogonalEdgeStyle;rounded=0;orthogonalLoop=1;jettySize=auto;html=1;" edge="1" parent="77e6c97f196da883-4" source="UvdvFAhY9TrJySVR9n1p-94" target="UvdvFAhY9TrJySVR9n1p-99">
          <mxGeometry relative="1" as="geometry" />
        </mxCell>
        <mxCell id="UvdvFAhY9TrJySVR9n1p-101" value="否" style="edgeLabel;html=1;align=center;verticalAlign=middle;resizable=0;points=[];" vertex="1" connectable="0" parent="UvdvFAhY9TrJySVR9n1p-100">
          <mxGeometry x="-0.62" y="-2" relative="1" as="geometry">
            <mxPoint as="offset" />
          </mxGeometry>
        </mxCell>
        <mxCell id="UvdvFAhY9TrJySVR9n1p-94" value="找到量产色卡？" style="rhombus;whiteSpace=wrap;html=1;rounded=1;" vertex="1" parent="77e6c97f196da883-4">
          <mxGeometry x="240" y="700" width="100" height="80" as="geometry" />
        </mxCell>
        <mxCell id="UvdvFAhY9TrJySVR9n1p-96" value="参照量产色卡" style="whiteSpace=wrap;html=1;rounded=1;" vertex="1" parent="77e6c97f196da883-4">
          <mxGeometry x="100" y="710" width="120" height="60" as="geometry" />
        </mxCell>
        <mxCell id="UvdvFAhY9TrJySVR9n1p-103" value="" style="edgeStyle=orthogonalEdgeStyle;rounded=0;orthogonalLoop=1;jettySize=auto;html=1;" edge="1" parent="77e6c97f196da883-4" source="UvdvFAhY9TrJySVR9n1p-99" target="UvdvFAhY9TrJySVR9n1p-102">
          <mxGeometry relative="1" as="geometry" />
        </mxCell>
        <mxCell id="UvdvFAhY9TrJySVR9n1p-105" value="" style="edgeStyle=orthogonalEdgeStyle;rounded=0;orthogonalLoop=1;jettySize=auto;html=1;exitX=1;exitY=0.5;exitDx=0;exitDy=0;" edge="1" parent="77e6c97f196da883-4" source="UvdvFAhY9TrJySVR9n1p-99" target="UvdvFAhY9TrJySVR9n1p-104">
          <mxGeometry relative="1" as="geometry" />
        </mxCell>
        <mxCell id="UvdvFAhY9TrJySVR9n1p-106" value="无参考标准" style="edgeLabel;html=1;align=center;verticalAlign=middle;resizable=0;points=[];" vertex="1" connectable="0" parent="UvdvFAhY9TrJySVR9n1p-105">
          <mxGeometry x="0.2556" y="-1" relative="1" as="geometry">
            <mxPoint as="offset" />
          </mxGeometry>
        </mxCell>
        <mxCell id="UvdvFAhY9TrJySVR9n1p-99" value="参考Anita邮件“对色卡原则”" style="whiteSpace=wrap;html=1;rounded=1;" vertex="1" parent="77e6c97f196da883-4">
          <mxGeometry x="230" y="800" width="120" height="60" as="geometry" />
        </mxCell>
        <mxCell id="UvdvFAhY9TrJySVR9n1p-108" value="" style="edgeStyle=orthogonalEdgeStyle;rounded=0;orthogonalLoop=1;jettySize=auto;html=1;" edge="1" parent="77e6c97f196da883-4" source="UvdvFAhY9TrJySVR9n1p-102" target="UvdvFAhY9TrJySVR9n1p-107">
          <mxGeometry relative="1" as="geometry" />
        </mxCell>
        <mxCell id="UvdvFAhY9TrJySVR9n1p-102" value="检查材料类型匹配" style="rhombus;whiteSpace=wrap;html=1;rounded=1;" vertex="1" parent="77e6c97f196da883-4">
          <mxGeometry x="180" y="900" width="120" height="80" as="geometry" />
        </mxCell>
        <mxCell id="UvdvFAhY9TrJySVR9n1p-104" value="直接对PT/CSI" style="whiteSpace=wrap;html=1;rounded=1;" vertex="1" parent="77e6c97f196da883-4">
          <mxGeometry x="330" y="910" width="120" height="60" as="geometry" />
        </mxCell>
        <mxCell id="UvdvFAhY9TrJySVR9n1p-112" value="" style="edgeStyle=orthogonalEdgeStyle;rounded=0;orthogonalLoop=1;jettySize=auto;html=1;" edge="1" parent="77e6c97f196da883-4" source="UvdvFAhY9TrJySVR9n1p-107" target="UvdvFAhY9TrJySVR9n1p-75">
          <mxGeometry relative="1" as="geometry" />
        </mxCell>
        <mxCell id="UvdvFAhY9TrJySVR9n1p-107" value="完成色卡确认" style="rounded=1;whiteSpace=wrap;html=1;" vertex="1" parent="77e6c97f196da883-4">
          <mxGeometry x="110" y="1030" width="120" height="60" as="geometry" />
        </mxCell>
        <mxCell id="UvdvFAhY9TrJySVR9n1p-109" value="" style="endArrow=classic;html=1;rounded=0;entryX=1.007;entryY=0.422;entryDx=0;entryDy=0;entryPerimeter=0;" edge="1" parent="77e6c97f196da883-4" target="UvdvFAhY9TrJySVR9n1p-107">
          <mxGeometry width="50" height="50" relative="1" as="geometry">
            <mxPoint x="390" y="970" as="sourcePoint" />
            <mxPoint x="440" y="920" as="targetPoint" />
            <Array as="points">
              <mxPoint x="390" y="1055" />
            </Array>
          </mxGeometry>
        </mxCell>
        <mxCell id="UvdvFAhY9TrJySVR9n1p-110" value="" style="endArrow=classic;html=1;rounded=0;entryX=0.424;entryY=0.006;entryDx=0;entryDy=0;entryPerimeter=0;" edge="1" parent="77e6c97f196da883-4" target="UvdvFAhY9TrJySVR9n1p-107">
          <mxGeometry width="50" height="50" relative="1" as="geometry">
            <mxPoint x="160" y="770" as="sourcePoint" />
            <mxPoint x="210" y="720" as="targetPoint" />
          </mxGeometry>
        </mxCell>
        <mxCell id="UvdvFAhY9TrJySVR9n1p-111" value="" style="endArrow=classic;html=1;rounded=0;" edge="1" parent="77e6c97f196da883-4">
          <mxGeometry width="50" height="50" relative="1" as="geometry">
            <mxPoint x="80" y="650" as="sourcePoint" />
            <mxPoint x="140" y="1030" as="targetPoint" />
            <Array as="points">
              <mxPoint x="80" y="960" />
              <mxPoint x="140" y="960" />
            </Array>
          </mxGeometry>
        </mxCell>
        <mxCell id="UvdvFAhY9TrJySVR9n1p-113" value="导出LIST" style="whiteSpace=wrap;html=1;rounded=1;" vertex="1" parent="77e6c97f196da883-4">
          <mxGeometry x="110" y="1225" width="120" height="60" as="geometry" />
        </mxCell>
      </root>
    </mxGraphModel>
  </diagram>
</mxfile>
